<?xml version="1.0" standalone="no"?>
<!DOCTYPE svg PUBLIC "-//W3C//DTD SVG 20010904//EN"
 "http://www.w3.org/TR/2001/REC-SVG-20010904/DTD/svg10.dtd">
<svg version="1.0" xmlns="http://www.w3.org/2000/svg"
 width="192.000000pt" height="192.000000pt" viewBox="0 0 192.000000 192.000000"
 preserveAspectRatio="xMidYMid meet">

<g transform="translate(0.000000,192.000000) scale(0.100000,-0.100000)"
fill="#000000" stroke="none">
<path d="M755 1904 c-349 -77 -630 -346 -727 -693 -30 -108 -36 -329 -13 -442
72 -356 341 -643 694 -741 108 -30 329 -36 442 -13 307 62 574 279 694 564 53
125 67 194 72 348 8 218 -30 366 -139 543 -125 203 -337 359 -578 425 -91 25
-349 30 -445 9z m515 -924 l0 -550 -95 0 -95 0 -2 473 -3 472 -74 -2 c-173 -5
-251 -78 -238 -223 9 -103 52 -156 205 -259 l62 -42 -142 -209 -142 -210 -98
0 c-64 0 -98 4 -98 11 0 6 54 90 119 186 l119 175 -59 50 c-114 94 -159 185
-159 318 0 189 112 315 310 350 25 4 123 8 218 9 l172 1 0 -550z"/>
</g>
</svg>
